<?xml version="1.0" standalone="no"?>
<!DOCTYPE svg PUBLIC "-//W3C//DTD SVG 20010904//EN"
 "http://www.w3.org/TR/2001/REC-SVG-20010904/DTD/svg10.dtd">
<svg version="1.0" xmlns="http://www.w3.org/2000/svg"
 width="225.000000pt" height="225.000000pt" viewBox="0 0 225.000000 225.000000"
 preserveAspectRatio="xMidYMid meet">

<g transform="translate(0.000000,225.000000) scale(0.100000,-0.100000)"
fill="#000000" stroke="none">
<path d="M1053 2143 c9 -2 23 -2 30 0 6 3 -1 5 -18 5 -16 0 -22 -2 -12 -5z"/>
<path d="M1145 2139 c22 -4 51 -8 65 -7 16 0 11 3 -15 9 -22 4 -51 8 -65 7
-16 0 -11 -3 15 -9z"/>
<path d="M1015 2130 c-9 -15 12 -38 56 -61 58 -29 61 -22 4 9 -32 18 -49 34
-49 45 2 19 -2 22 -11 7z"/>
<path d="M1258 2123 c7 -3 16 -2 19 1 4 3 -2 6 -13 5 -11 0 -14 -3 -6 -6z"/>
<path d="M1390 2080 c8 -5 20 -10 25 -10 6 0 3 5 -5 10 -8 5 -19 10 -25 10 -5
0 -3 -5 5 -10z"/>
<path d="M1238 2045 c-2 -19 0 -35 4 -35 7 0 10 23 7 46 0 4 5 11 13 15 10 7
9 9 -3 9 -12 0 -18 -11 -21 -35z"/>
<path d="M1272 2053 c-17 -31 -15 -53 6 -52 10 0 12 3 5 6 -16 6 -17 30 -1 35
6 2 9 11 6 18 -3 11 -8 10 -16 -7z"/>
<path d="M1478 2035 c22 -19 31 -33 27 -44 -5 -13 -4 -13 6 -4 10 10 9 17 -7
34 -10 11 -28 25 -39 31 -11 5 -5 -3 13 -17z"/>
<path d="M1198 2023 c7 -3 16 -2 19 1 4 3 -2 6 -13 5 -11 0 -14 -3 -6 -6z"/>
<path d="M1321 2001 c-9 -6 2 -11 34 -15 26 -4 49 -5 53 -2 3 3 -6 6 -21 6
-14 0 -29 5 -32 10 -7 12 -16 12 -34 1z"/>
<path d="M1231 1984 c0 -11 3 -14 6 -6 3 7 2 16 -1 19 -3 4 -6 -2 -5 -13z"/>
<path d="M1251 1974 c0 -11 3 -14 6 -6 3 7 2 16 -1 19 -3 4 -6 -2 -5 -13z"/>
<path d="M1221 1934 c0 -11 3 -14 6 -6 3 7 2 16 -1 19 -3 4 -6 -2 -5 -13z"/>
<path d="M1241 1934 c0 -11 3 -14 6 -6 3 7 2 16 -1 19 -3 4 -6 -2 -5 -13z"/>
<path d="M1211 1907 c2 -2 18 -11 34 -22 l30 -18 -19 21 c-11 12 -26 22 -34
22 -9 0 -13 -1 -11 -3z"/>
<path d="M1168 1886 c-9 -9 -48 -15 -114 -18 -221 -10 -385 -126 -444 -313 -7
-22 -18 -46 -24 -54 -9 -12 -8 -12 10 -3 16 8 27 7 49 -4 24 -13 26 -12 15 1
-7 8 -19 15 -26 15 -18 0 -18 15 2 45 9 14 21 22 28 18 6 -3 3 3 -7 14 -19 22
-14 55 8 47 7 -3 16 0 20 5 3 6 10 9 15 6 5 -3 11 -1 15 4 3 6 -5 8 -20 5 -31
-5 -32 10 -3 30 12 9 19 16 15 16 -5 0 -1 7 8 16 12 13 19 13 30 4 12 -10 13
-8 10 9 -2 14 5 27 25 41 38 27 44 25 23 -6 -9 -14 -22 -47 -29 -72 -8 -33
-17 -47 -28 -46 -9 1 -13 -2 -10 -7 3 -5 -6 -9 -20 -9 -14 0 -26 -4 -26 -10 0
-5 -7 -10 -15 -10 -8 0 -15 -4 -15 -10 0 -13 7 -13 33 4 34 21 77 29 78 14 1
-7 5 13 9 45 12 90 77 167 142 167 46 0 75 -55 63 -118 -6 -30 -8 -33 -16 -19
-25 44 -79 -3 -65 -56 9 -36 44 -42 59 -9 l12 26 6 -30 c5 -22 7 -17 8 24 2
121 86 191 176 150 50 -22 78 -111 56 -171 -8 -22 -7 -23 14 -19 13 2 49 -8
82 -23 50 -24 55 -28 38 -36 -17 -8 -16 -8 6 -4 22 4 34 -3 67 -39 62 -67 85
-119 90 -206 6 -96 -25 -190 -92 -284 l-46 -65 -98 -32 c-156 -50 -328 -51
-424 -2 -15 7 -45 28 -65 45 l-38 32 28 -30 c15 -17 27 -33 27 -36 0 -3 -24
-17 -52 -31 -29 -15 -70 -41 -91 -58 l-38 -31 31 -19 c32 -20 60 -71 60 -109
0 -12 -7 -35 -15 -53 -10 -19 -11 -26 -3 -16 14 17 162 54 178 44 7 -4 7 2 0
20 -6 15 -10 46 -10 71 0 50 29 89 61 81 10 -3 23 1 30 9 18 22 73 28 107 10
28 -14 41 -35 48 -74 5 -25 14 -26 14 -1 0 14 -5 30 -11 36 -9 9 -2 13 25 17
20 3 52 8 71 11 23 4 50 -1 81 -14 44 -20 45 -21 38 -58 -3 -21 -14 -46 -23
-57 -11 -12 -3 -10 23 8 70 47 161 24 192 -49 19 -46 18 -73 -4 -114 -25 -47
-76 -74 -126 -67 -22 2 -34 1 -27 -3 17 -11 -31 -45 -84 -60 -86 -24 -214 -1
-274 48 -46 36 -54 62 -9 28 19 -15 39 -27 43 -27 4 0 -12 15 -36 32 -24 18
-48 31 -53 30 -5 -2 -6 3 -3 10 2 8 -3 29 -13 47 -13 27 -18 30 -23 17 -5 -11
-3 -15 5 -10 8 5 9 2 5 -10 -5 -11 -3 -15 5 -10 7 5 9 2 5 -9 -14 -38 158
-224 229 -247 51 -17 110 -7 159 29 24 17 47 31 52 31 13 0 34 -40 27 -52 -4
-6 -3 -8 3 -5 6 4 19 0 29 -8 10 -8 40 -15 65 -15 89 0 198 104 201 193 1 20
6 37 12 37 8 0 8 3 0 8 -6 4 -15 23 -18 42 -4 19 -10 43 -12 53 -4 13 1 17 25
17 66 0 95 77 46 125 -27 28 -62 32 -90 11 -18 -13 -22 -9 -63 67 -24 45 -52
91 -63 103 -24 26 -24 64 0 95 33 43 81 148 96 211 40 172 -11 347 -135 461
-59 55 -185 125 -235 131 -5 1 -29 5 -53 10 -35 6 -41 10 -31 22 15 18 5 18
-13 0z m61 -39 c18 -5 43 -10 55 -13 66 -12 232 -116 219 -137 -3 -6 -1 -7 6
-3 6 4 14 0 18 -9 3 -10 16 -29 29 -42 13 -14 22 -29 19 -33 -3 -4 5 -18 16
-31 14 -16 18 -31 14 -49 -4 -17 -3 -21 4 -11 14 22 34 -122 27 -191 -4 -32
-14 -77 -22 -101 -30 -86 -90 -191 -105 -182 -5 4 -8 1 -7 -5 2 -7 -16 -23
-40 -36 l-43 -23 21 32 c38 58 68 122 75 160 4 20 10 35 14 33 14 -9 -6 171
-24 209 -23 52 -30 89 -14 79 8 -5 9 -3 4 6 -7 11 -10 11 -18 -2 -9 -13 -18
-7 -57 34 -27 28 -52 50 -56 51 -5 0 -24 6 -42 14 -18 8 -46 16 -61 19 -27 6
-28 9 -24 46 7 51 -13 113 -43 128 -13 7 -21 17 -18 21 3 5 -1 6 -9 3 -8 -3
-17 -1 -20 4 -4 4 -22 7 -42 6 -26 -2 -34 0 -29 9 4 7 3 8 -2 4 -5 -5 -9 -14
-9 -20 0 -7 -8 -11 -18 -11 -9 1 -15 -1 -13 -5 1 -3 -5 -13 -14 -22 -17 -16
-19 -15 -29 8 -6 13 -8 29 -5 35 4 7 2 8 -5 4 -6 -4 -19 -2 -28 6 -14 12 -13
14 13 20 41 9 223 6 263 -5z m-269 -176 c0 -12 -20 -25 -27 -18 -7 7 6 27 18
27 5 0 9 -4 9 -9z m-329 -104 c-10 -9 -11 -8 -5 6 3 10 9 15 12 12 3 -3 0 -11
-7 -18z m940 -681 c17 -32 18 -40 7 -48 -10 -8 -9 -8 4 -4 14 4 22 -4 33 -31
18 -43 19 -57 3 -47 -7 4 -8 3 -4 -5 4 -6 11 -9 16 -6 11 7 33 -62 26 -81 -3
-8 -2 -13 2 -10 12 7 32 -84 32 -140 0 -67 -60 -168 -89 -149 -6 3 -9 0 -5 -8
7 -18 -52 -47 -96 -47 -38 0 -92 35 -88 58 2 9 -1 17 -7 17 -5 1 -23 8 -40 17
-26 13 -34 13 -62 2 -38 -16 -40 -20 -13 -27 11 -3 18 -2 16 2 -3 4 7 8 22 9
l27 1 -30 -22 c-16 -12 -31 -20 -34 -19 -2 2 -7 -2 -11 -8 -14 -23 -92 -23
-128 0 -18 11 -30 25 -27 30 3 5 -1 7 -9 4 -8 -3 -28 7 -47 25 -32 31 -26 41
14 19 26 -13 53 -17 122 -17 67 0 118 14 153 44 30 25 72 34 72 15 0 -13 16
-1 78 57 44 42 44 43 40 98 -3 30 -1 55 3 55 4 0 11 9 14 21 6 17 9 18 23 8
14 -11 15 -11 5 0 -9 11 -9 21 1 46 8 18 10 38 6 44 -4 8 -9 2 -13 -16 -4 -15
-16 -43 -27 -62 -20 -32 -22 -33 -40 -16 -11 10 -17 23 -13 29 3 6 2 8 -2 3
-5 -4 -18 -1 -29 6 -29 19 -102 27 -115 14 -34 -34 -13 52 27 111 15 22 50 56
77 75 l50 34 18 -21 c10 -12 27 -38 38 -60z m-679 -50 c6 4 0 -8 -13 -26 -23
-31 -24 -31 -27 -8 -5 30 -22 49 -22 22 0 -11 8 -49 18 -86 l19 -67 -51 -11
c-28 -6 -59 -13 -68 -15 -14 -2 -18 4 -18 32 0 38 -12 65 -44 103 -11 13 -14
19 -4 12 12 -10 18 -10 24 -1 4 7 3 9 -4 5 -6 -3 -13 -2 -17 3 -3 6 -12 8 -20
4 -23 -8 -18 6 13 32 20 17 30 20 40 13 9 -8 11 -7 7 4 -7 17 20 32 37 21 7
-4 8 -1 3 7 -6 10 -4 12 8 7 10 -3 17 -2 17 3 0 6 21 -6 46 -25 25 -19 50 -32
56 -29z m479 28 c-12 -15 -21 -33 -21 -40 0 -10 -6 -10 -27 2 -16 7 -35 14
-43 15 -8 0 8 8 37 17 28 10 55 21 59 25 17 17 14 5 -5 -19z"/>
<path d="M1000 1846 c0 -3 9 -10 20 -16 11 -6 20 -8 20 -6 0 3 -9 10 -20 16
-11 6 -20 8 -20 6z"/>
<path d="M1238 1793 c7 -3 16 -2 19 1 4 3 -2 6 -13 5 -11 0 -14 -3 -6 -6z"/>
<path d="M1250 1719 c0 -5 5 -7 10 -4 6 3 10 8 10 11 0 2 -4 4 -10 4 -5 0 -10
-5 -10 -11z"/>
<path d="M1410 1582 c0 -5 7 -9 15 -9 8 0 12 4 9 9 -3 4 -9 8 -15 8 -5 0 -9
-4 -9 -8z"/>
<path d="M1520 1121 c0 -6 4 -13 10 -16 6 -3 7 1 4 9 -7 18 -14 21 -14 7z"/>
<path d="M1526 903 c-6 -14 -5 -15 5 -6 7 7 10 15 7 18 -3 3 -9 -2 -12 -12z"/>
<path d="M1410 841 c0 -6 4 -13 10 -16 6 -3 7 1 4 9 -7 18 -14 21 -14 7z"/>
<path d="M1525 721 c-3 -5 -2 -12 3 -15 5 -3 9 1 9 9 0 17 -3 19 -12 6z"/>
<path d="M809 848 c-6 -20 -6 -39 0 -42 4 -3 7 6 7 20 0 20 -4 32 -7 22z"/>
<path d="M695 831 c-9 -15 15 -25 28 -12 9 9 7 10 -7 5 -13 -5 -17 -4 -12 4 4
7 5 12 2 12 -3 0 -7 -4 -11 -9z"/>
<path d="M1045 1690 c-3 -6 1 -7 9 -4 18 7 21 14 7 14 -6 0 -13 -4 -16 -10z"/>
<path d="M1010 1660 c-10 -19 -8 -20 42 -18 52 1 52 2 10 5 -33 3 -42 8 -38
19 8 21 -2 17 -14 -6z"/>
<path d="M780 1596 c0 -2 8 -10 18 -17 15 -13 16 -12 3 4 -13 16 -21 21 -21
13z"/>
<path d="M845 1582 c-40 -35 -22 -108 33 -128 26 -10 34 -8 61 13 35 28 42 73
15 111 -19 27 -79 30 -109 4z m83 -20 c4 -26 -22 -40 -43 -22 -11 9 -12 17 -4
32 13 25 43 19 47 -10z"/>
<path d="M680 1566 c0 -3 9 -10 20 -16 11 -6 20 -8 20 -6 0 3 -9 10 -20 16
-11 6 -20 8 -20 6z"/>
<path d="M1156 1545 c-11 -8 -16 -15 -10 -15 5 0 18 7 28 15 11 8 16 15 10 15
-5 0 -18 -7 -28 -15z"/>
<path d="M730 1537 c0 -3 17 -17 37 -33 20 -15 33 -23 29 -16 -8 13 -66 56
-66 49z"/>
<path d="M1298 1533 c6 -2 18 -2 25 0 6 3 1 5 -13 5 -14 0 -19 -2 -12 -5z"/>
<path d="M1248 1523 c6 -2 18 -2 25 0 6 3 1 5 -13 5 -14 0 -19 -2 -12 -5z"/>
<path d="M1208 1513 c7 -3 16 -2 19 1 4 3 -2 6 -13 5 -11 0 -14 -3 -6 -6z"/>
<path d="M1158 1503 c7 -3 16 -2 19 1 4 3 -2 6 -13 5 -11 0 -14 -3 -6 -6z"/>
<path d="M1118 1493 c7 -3 16 -2 19 1 4 3 -2 6 -13 5 -11 0 -14 -3 -6 -6z"/>
<path d="M1078 1483 c7 -3 16 -2 19 1 4 3 -2 6 -13 5 -11 0 -14 -3 -6 -6z"/>
<path d="M541 1434 c0 -11 3 -14 6 -6 3 7 2 16 -1 19 -3 4 -6 -2 -5 -13z"/>
<path d="M608 1433 c18 -2 45 -2 60 0 15 2 0 4 -33 4 -33 0 -45 -2 -27 -4z"/>
<path d="M1348 1433 c12 -2 30 -2 40 0 9 3 -1 5 -23 4 -22 0 -30 -2 -17 -4z"/>
<path d="M753 1423 c9 -2 25 -2 35 0 9 3 1 5 -18 5 -19 0 -27 -2 -17 -5z"/>
<path d="M1108 1423 c23 -2 61 -2 85 0 23 2 4 4 -43 4 -47 0 -66 -2 -42 -4z"/>
<path d="M890 1365 l-5 -60 -111 -10 -111 -10 41 -69 c54 -91 161 -205 227
-241 68 -38 161 -41 224 -8 50 26 107 82 98 96 -3 6 -1 7 5 3 14 -9 46 39 36
55 -4 8 -3 9 5 5 12 -8 33 33 58 117 7 26 18 47 23 47 6 0 1 9 -9 19 -24 24
-145 29 -311 13 -172 -18 -158 -22 -162 46 l-4 57 -4 -60z"/>
<path d="M708 1353 c6 -2 18 -2 25 0 6 3 1 5 -13 5 -14 0 -19 -2 -12 -5z"/>
<path d="M1098 1353 c7 -3 16 -2 19 1 4 3 -2 6 -13 5 -11 0 -14 -3 -6 -6z"/>
<path d="M658 1343 c7 -3 16 -2 19 1 4 3 -2 6 -13 5 -11 0 -14 -3 -6 -6z"/>
<path d="M1148 1343 c7 -3 16 -2 19 1 4 3 -2 6 -13 5 -11 0 -14 -3 -6 -6z"/>
<path d="M569 1317 c14 -15 29 -27 35 -27 6 0 3 5 -7 11 -9 6 -14 16 -11 22 4
7 4 9 -1 5 -4 -4 -15 -2 -24 4 -9 7 -5 0 8 -15z"/>
<path d="M608 1333 c7 -3 16 -2 19 1 4 3 -2 6 -13 5 -11 0 -14 -3 -6 -6z"/>
<path d="M628 1283 c7 -3 16 -2 19 1 4 3 -2 6 -13 5 -11 0 -14 -3 -6 -6z"/>
<path d="M592 1250 c0 -14 2 -19 5 -12 2 6 2 18 0 25 -3 6 -5 1 -5 -13z"/>
<path d="M610 1185 c0 -5 5 -17 10 -25 5 -8 10 -10 10 -5 0 6 -5 17 -10 25 -5
8 -10 11 -10 5z"/>
<path d="M646 1112 c10 -18 30 -43 43 -55 14 -13 8 -1 -14 28 -47 63 -53 69
-29 27z"/>
<path d="M725 1010 c10 -11 20 -20 23 -20 3 0 -3 9 -13 20 -10 11 -20 20 -23
20 -3 0 3 -9 13 -20z"/>
<path d="M578 813 c6 -2 18 -2 25 0 6 3 1 5 -13 5 -14 0 -19 -2 -12 -5z"/>
<path d="M489 773 c-13 -16 -12 -17 4 -4 9 7 17 15 17 17 0 8 -8 3 -21 -13z"/>
<path d="M916 782 c-2 -2 -2 -12 1 -23 5 -18 6 -18 18 -3 10 14 25 16 91 12
43 -3 70 -2 59 2 -21 8 -164 18 -169 12z"/>
<path d="M978 753 c18 -2 45 -2 60 0 15 2 0 4 -33 4 -33 0 -45 -2 -27 -4z"/>
<path d="M986 731 c-4 -6 0 -21 9 -35 13 -19 13 -25 3 -29 -7 -3 3 -5 22 -6
31 0 32 1 12 9 -17 7 -22 16 -20 36 3 27 -15 44 -26 25z"/>
<path d="M930 723 c0 -5 12 -20 28 -34 l27 -24 -25 30 c-14 17 -26 32 -27 34
-2 2 -3 0 -3 -6z"/>
<path d="M1081 690 c-13 -11 -19 -20 -14 -20 6 0 18 9 28 20 23 25 17 25 -14
0z"/>
<path d="M1265 650 c-19 -8 -19 -9 3 -9 12 -1 22 4 22 9 0 6 -1 10 -2 9 -2 0
-12 -4 -23 -9z"/>
<path d="M460 640 c0 -19 75 -90 96 -90 12 0 7 6 -16 18 -19 9 -45 32 -57 51
-13 19 -23 28 -23 21z"/>
<path d="M1218 633 c7 -3 16 -2 19 1 4 3 -2 6 -13 5 -11 0 -14 -3 -6 -6z"/>
<path d="M968 623 c7 -3 16 -2 19 1 4 3 -2 6 -13 5 -11 0 -14 -3 -6 -6z"/>
<path d="M1168 623 c6 -2 18 -2 25 0 6 3 1 5 -13 5 -14 0 -19 -2 -12 -5z"/>
<path d="M1048 613 c18 -2 45 -2 60 0 15 2 0 4 -33 4 -33 0 -45 -2 -27 -4z"/>
<path d="M640 569 c-19 -11 -28 -19 -19 -19 9 0 27 9 40 20 29 23 25 23 -21
-1z"/>
<path d="M1730 526 c0 -2 8 -10 18 -17 15 -13 16 -12 3 4 -13 16 -21 21 -21
13z"/>
<path d="M1314 512 c3 -6 -6 -20 -21 -32 -16 -12 -21 -18 -13 -14 8 4 23 14
32 22 9 7 22 11 27 7 6 -3 11 -4 11 -1 0 3 -10 10 -21 17 -13 6 -19 7 -15 1z"/>
<path d="M1766 477 c3 -10 9 -15 12 -12 3 3 0 11 -7 18 -10 9 -11 8 -5 -6z"/>
<path d="M1088 453 c7 -3 16 -2 19 1 4 3 -2 6 -13 5 -11 0 -14 -3 -6 -6z"/>
<path d="M1238 453 c7 -3 16 -2 19 1 4 3 -2 6 -13 5 -11 0 -14 -3 -6 -6z"/>
<path d="M1158 443 c12 -2 32 -2 45 0 12 2 2 4 -23 4 -25 0 -35 -2 -22 -4z"/>
<path d="M1782 430 c0 -14 2 -19 5 -12 2 6 2 18 0 25 -3 6 -5 1 -5 -13z"/>
<path d="M1112 310 c0 -14 2 -19 5 -12 2 6 2 18 0 25 -3 6 -5 1 -5 -13z"/>
<path d="M1781 315 c-1 -11 -10 -39 -21 -63 -11 -23 -15 -40 -10 -37 14 8 43
92 37 107 -3 8 -6 5 -6 -7z"/>
<path d="M1393 265 c0 -22 2 -30 4 -17 2 12 2 30 0 40 -3 9 -5 -1 -4 -23z"/>
<path d="M1111 224 c0 -11 3 -14 6 -6 3 7 2 16 -1 19 -3 4 -6 -2 -5 -13z"/>
<path d="M1375 172 l-29 -37 30 28 c17 15 34 24 38 20 4 -4 4 0 0 10 -3 9 -7
17 -8 16 0 0 -14 -17 -31 -37z"/>
<path d="M1120 193 c0 -7 12 -25 28 -41 15 -15 20 -19 11 -7 -9 11 -21 29 -27
40 -6 11 -12 14 -12 8z"/>
<path d="M1725 189 c-4 -6 -25 -24 -47 -40 -23 -16 -36 -29 -31 -29 12 0 102
79 91 80 -4 0 -10 -5 -13 -11z"/>
<path d="M1435 150 c10 -11 20 -20 23 -20 3 0 -3 9 -13 20 -10 11 -20 20 -23
20 -3 0 3 -9 13 -20z"/>
<path d="M1320 130 c-9 -6 -10 -10 -3 -10 6 0 15 5 18 10 8 12 4 12 -15 0z"/>
<path d="M1238 103 c7 -3 16 -2 19 1 4 3 -2 6 -13 5 -11 0 -14 -3 -6 -6z"/>
<path d="M1533 103 c15 -2 37 -2 50 0 12 2 0 4 -28 4 -27 0 -38 -2 -22 -4z"/>
</g>
</svg>
